<svg xmlns="http://www.w3.org/2000/svg" xmlns:xlink="http://www.w3.org/1999/xlink" width="500" zoomAndPan="magnify" viewBox="0 0 375 326.250004" height="435" preserveAspectRatio="xMidYMid meet" version="1.0"><path fill="#5271ff" d="M 19.515625 116.339844 L 138.839844 9.207031 C 149.113281 -0.015625 165.226562 2.300781 172.488281 14.042969 L 254.277344 146.273438 C 267.820312 168.175781 239.398438 191.671875 220.433594 174.246094 L 156.894531 115.855469 C 150.316406 109.8125 140.761719 108.308594 132.648438 112.035156 L 43.570312 152.964844 C 20.488281 163.570312 0.613281 133.3125 19.515625 116.339844 " fill-opacity="1" fill-rule="nonzero"/><path fill="#293980" d="M 356.773438 201.609375 L 228.757812 316.535156 C 219.179688 325.136719 204.152344 322.980469 197.382812 312.03125 L 117.378906 182.675781 C 105.03125 162.707031 130.257812 140.890625 148.238281 155.984375 L 212.871094 210.253906 C 218.988281 215.390625 227.523438 216.539062 234.78125 213.203125 L 334.34375 167.457031 C 355.867188 157.574219 374.398438 185.78125 356.773438 201.609375 " fill-opacity="1" fill-rule="nonzero"/></svg>