<svg xmlns="http://www.w3.org/2000/svg" xmlns:xlink="http://www.w3.org/1999/xlink" width="500" zoomAndPan="magnify" viewBox="0 0 375 326.250004" height="435" preserveAspectRatio="xMidYMid meet" version="1.0"><path fill="#ffffff" d="M 19.515625 116.519531 L 138.839844 9.386719 C 149.113281 0.164062 165.226562 2.476562 172.488281 14.222656 L 254.277344 146.449219 C 267.820312 168.351562 239.398438 191.847656 220.433594 174.421875 L 156.894531 116.03125 C 150.316406 109.992188 140.761719 108.488281 132.648438 112.214844 L 43.570312 153.140625 C 20.488281 163.75 0.613281 133.492188 19.515625 116.519531 " fill-opacity="1" fill-rule="nonzero"/><path fill="#ffffff" d="M 356.773438 201.789062 L 228.757812 316.714844 C 219.179688 325.3125 204.152344 323.15625 197.382812 312.210938 L 117.378906 182.851562 C 105.03125 162.886719 130.257812 141.066406 148.238281 156.164062 L 212.871094 210.433594 C 218.988281 215.570312 227.523438 216.71875 234.78125 213.382812 L 334.34375 167.636719 C 355.867188 157.75 374.398438 185.960938 356.773438 201.789062 " fill-opacity="1" fill-rule="nonzero"/></svg>