<svg xmlns="http://www.w3.org/2000/svg" xmlns:xlink="http://www.w3.org/1999/xlink" width="500" zoomAndPan="magnify" viewBox="0 0 375 374.999991" height="500" preserveAspectRatio="xMidYMid meet" version="1.0"><defs><g/><clipPath id="72799dc6cb"><path d="M 144 137.027344 L 258 137.027344 L 258 226 L 144 226 Z M 144 137.027344 " clip-rule="nonzero"/></clipPath><clipPath id="383b402c20"><path d="M 123.488281 269 L 284.507812 269 L 284.507812 374.898438 L 123.488281 374.898438 Z M 123.488281 269 " clip-rule="nonzero"/></clipPath><clipPath id="8be85c5f2b"><path d="M 125 269 L 282 269 L 282 374.898438 L 125 374.898438 Z M 125 269 " clip-rule="nonzero"/></clipPath><clipPath id="d87d6f9124"><path d="M 228.378906 59.988281 L 340 59.988281 L 340 134.886719 L 228.378906 134.886719 Z M 228.378906 59.988281 " clip-rule="nonzero"/></clipPath><clipPath id="006810bda0"><path d="M 35 109.566406 L 133.839844 109.566406 L 133.839844 175.925781 L 35 175.925781 Z M 35 109.566406 " clip-rule="nonzero"/></clipPath><clipPath id="02519b92bf"><path d="M 84.195312 0 L 229 0 L 229 97.34375 L 84.195312 97.34375 Z M 84.195312 0 " clip-rule="nonzero"/></clipPath></defs><g clip-path="url(#72799dc6cb)"><path fill="#112233" d="M 199.414062 150.703125 C 179.675781 141.121094 148.5 152.339844 144.492188 174.386719 C 142.320312 186.34375 158.550781 187.730469 158.550781 187.730469 C 157.738281 195.777344 159.609375 203.058594 162.609375 210.019531 C 162.609375 210.019531 171.335938 219.363281 181.109375 223.628906 C 191.730469 228.261719 231.1875 219.765625 231.1875 219.765625 L 246.925781 214.960938 C 246.925781 214.960938 254.347656 208.109375 256.492188 198.882812 C 258.839844 188.792969 254.210938 180.738281 254.210938 180.738281 C 254.210938 180.738281 260.300781 171.066406 256.574219 166.117188 C 251.933594 159.949219 243.074219 165.566406 243.074219 165.566406 C 243.074219 165.566406 239.054688 137.089844 215.460938 137.464844 C 201.773438 137.683594 199.414062 150.703125 199.414062 150.703125 Z M 199.414062 150.703125 " fill-opacity="1" fill-rule="evenodd"/></g><path fill="#ffcebe" d="M 219.011719 232.21875 L 189.074219 232.21875 L 189.074219 272.011719 L 189.308594 302.242188 L 204.9375 302.070312 L 218.820312 302.839844 L 219.011719 272.011719 Z M 219.011719 232.21875 " fill-opacity="1" fill-rule="evenodd"/><path fill="#112233" d="M 219.207031 258.648438 L 219.003906 241.332031 C 210.644531 239.621094 193.800781 237.207031 190.339844 249.261719 C 198.957031 257.539062 208.402344 257.972656 219.207031 258.648438 Z M 219.207031 258.648438 " fill-opacity="1" fill-rule="evenodd"/><g clip-path="url(#383b402c20)"><path fill="#ffcebe" d="M 203.949219 269.113281 L 219.238281 269.246094 C 219.238281 269.246094 254.734375 286.40625 266.90625 299.980469 C 282.765625 317.664062 284.414062 374.617188 284.414062 374.617188 L 210.460938 374.886719 L 210.460938 374.933594 L 203.949219 374.910156 L 197.441406 374.933594 L 197.441406 374.886719 L 123.488281 374.617188 C 123.488281 374.617188 125.335938 317.761719 141.195312 300.078125 C 153.367188 286.503906 188.660156 269.246094 188.660156 269.246094 Z M 203.949219 269.113281 " fill-opacity="1" fill-rule="evenodd"/></g><g clip-path="url(#8be85c5f2b)"><path fill="#5271ff" d="M 255.332031 374.722656 L 210.453125 374.886719 L 210.453125 374.933594 L 203.941406 374.910156 L 197.429688 374.933594 L 197.429688 374.886719 L 153.675781 374.726562 L 152.207031 350.867188 L 125.933594 347.160156 C 128.265625 330.027344 132.742188 309.496094 141.1875 300.078125 C 153.359375 286.503906 188.65625 269.242188 188.65625 269.242188 C 188.65625 269.242188 186.929688 286.273438 204.042969 285.589844 C 220.449219 284.933594 219.230469 269.242188 219.230469 269.242188 C 219.230469 269.242188 254.726562 286.40625 266.894531 299.980469 C 274.847656 308.84375 279.222656 327.578125 281.617188 344.0625 L 256.433594 348.882812 Z M 255.332031 374.722656 " fill-opacity="1" fill-rule="evenodd"/></g><path fill="#112233" d="M 150.878906 331.75 L 152.964844 372.347656 C 152.984375 372.753906 153.332031 373.066406 153.738281 373.042969 C 154.144531 373.023438 154.453125 372.679688 154.433594 372.273438 L 152.347656 331.671875 C 152.328125 331.265625 151.984375 330.957031 151.578125 330.976562 C 151.171875 330.996094 150.859375 331.34375 150.878906 331.75 Z M 150.878906 331.75 " fill-opacity="1" fill-rule="evenodd"/><path fill="#112233" d="M 256.804688 331.671875 L 254.722656 372.273438 C 254.699219 372.679688 255.011719 373.023438 255.417969 373.042969 C 255.824219 373.066406 256.167969 372.753906 256.191406 372.347656 L 258.273438 331.75 C 258.296875 331.34375 257.984375 330.996094 257.578125 330.976562 C 257.171875 330.957031 256.828125 331.265625 256.804688 331.671875 Z M 256.804688 331.671875 " fill-opacity="1" fill-rule="evenodd"/><path fill="#ffcebe" d="M 252.789062 214.363281 C 252.785156 214.988281 252.726562 215.605469 252.605469 216.214844 C 252.484375 216.828125 252.300781 217.421875 252.0625 217.996094 C 251.824219 218.574219 251.53125 219.121094 251.1875 219.640625 C 250.839844 220.15625 250.445312 220.636719 250.003906 221.078125 C 249.5625 221.519531 249.085938 221.914062 248.566406 222.257812 C 248.046875 222.605469 247.5 222.898438 246.925781 223.136719 C 246.347656 223.375 245.753906 223.554688 245.140625 223.675781 C 244.53125 223.800781 243.914062 223.859375 243.289062 223.859375 C 242.667969 223.859375 242.050781 223.800781 241.4375 223.675781 C 240.824219 223.554688 240.230469 223.375 239.65625 223.136719 C 239.078125 222.898438 238.53125 222.605469 238.011719 222.257812 C 237.496094 221.914062 237.015625 221.519531 236.574219 221.078125 C 236.132812 220.636719 235.738281 220.15625 235.394531 219.640625 C 235.046875 219.121094 234.753906 218.574219 234.515625 217.996094 C 234.277344 217.421875 234.097656 216.828125 233.976562 216.214844 C 233.855469 215.605469 233.792969 214.988281 233.792969 214.363281 C 233.792969 213.738281 233.855469 213.121094 233.976562 212.511719 C 234.097656 211.898438 234.277344 211.304688 234.515625 210.726562 C 234.753906 210.152344 235.046875 209.605469 235.394531 209.085938 C 235.738281 208.566406 236.132812 208.089844 236.574219 207.648438 C 237.015625 207.207031 237.496094 206.8125 238.011719 206.464844 C 238.53125 206.121094 239.078125 205.828125 239.65625 205.589844 C 240.230469 205.351562 240.824219 205.171875 241.4375 205.046875 C 242.046875 204.925781 242.667969 204.867188 243.289062 204.867188 C 243.914062 204.867188 244.53125 204.925781 245.144531 205.046875 C 245.753906 205.171875 246.347656 205.351562 246.925781 205.589844 C 247.5 205.828125 248.046875 206.121094 248.566406 206.464844 C 249.085938 206.8125 249.5625 207.207031 250.003906 207.648438 C 250.445312 208.089844 250.839844 208.566406 251.1875 209.085938 C 251.53125 209.605469 251.824219 210.152344 252.0625 210.726562 C 252.300781 211.304688 252.484375 211.898438 252.605469 212.511719 C 252.726562 213.121094 252.785156 213.738281 252.789062 214.363281 Z M 252.789062 214.363281 " fill-opacity="1" fill-rule="nonzero"/><path fill="#ffcebe" d="M 175.179688 214.363281 C 175.179688 214.988281 175.117188 215.605469 174.996094 216.214844 C 174.875 216.828125 174.695312 217.421875 174.457031 217.996094 C 174.21875 218.574219 173.925781 219.121094 173.578125 219.640625 C 173.230469 220.15625 172.839844 220.636719 172.398438 221.078125 C 171.957031 221.519531 171.476562 221.914062 170.957031 222.257812 C 170.441406 222.605469 169.890625 222.898438 169.316406 223.136719 C 168.738281 223.375 168.144531 223.554688 167.535156 223.675781 C 166.921875 223.800781 166.304688 223.859375 165.683594 223.859375 C 165.058594 223.859375 164.441406 223.800781 163.828125 223.675781 C 163.21875 223.554688 162.625 223.375 162.046875 223.136719 C 161.472656 222.898438 160.925781 222.605469 160.40625 222.257812 C 159.886719 221.914062 159.40625 221.519531 158.964844 221.078125 C 158.527344 220.636719 158.132812 220.15625 157.785156 219.640625 C 157.4375 219.121094 157.148438 218.574219 156.90625 217.996094 C 156.667969 217.421875 156.488281 216.828125 156.367188 216.214844 C 156.246094 215.605469 156.183594 214.988281 156.183594 214.363281 C 156.183594 213.738281 156.246094 213.121094 156.367188 212.511719 C 156.488281 211.898438 156.667969 211.304688 156.90625 210.726562 C 157.144531 210.152344 157.4375 209.605469 157.785156 209.085938 C 158.132812 208.566406 158.527344 208.089844 158.964844 207.648438 C 159.40625 207.207031 159.886719 206.8125 160.40625 206.464844 C 160.925781 206.121094 161.472656 205.828125 162.046875 205.589844 C 162.625 205.351562 163.21875 205.171875 163.828125 205.046875 C 164.441406 204.925781 165.058594 204.867188 165.683594 204.867188 C 166.304688 204.867188 166.921875 204.925781 167.535156 205.046875 C 168.144531 205.171875 168.738281 205.351562 169.316406 205.589844 C 169.890625 205.828125 170.441406 206.121094 170.957031 206.464844 C 171.476562 206.8125 171.957031 207.207031 172.398438 207.648438 C 172.839844 208.089844 173.230469 208.566406 173.578125 209.085938 C 173.925781 209.605469 174.21875 210.152344 174.457031 210.726562 C 174.695312 211.304688 174.875 211.898438 174.996094 212.511719 C 175.117188 213.121094 175.179688 213.738281 175.179688 214.363281 Z M 175.179688 214.363281 " fill-opacity="1" fill-rule="nonzero"/><path fill="#ffcebe" d="M 202.808594 161.675781 C 223.589844 161.675781 241.695312 181.875 241.695312 207.230469 C 241.695312 232.589844 228.105469 253.679688 204.042969 253.175781 C 181.375 252.699219 166.390625 232.589844 166.390625 207.230469 C 166.390625 196.101562 162.15625 183.78125 167.292969 175.910156 C 173.863281 165.847656 191.148438 161.675781 202.808594 161.675781 Z M 202.808594 161.675781 " fill-opacity="1" fill-rule="evenodd"/><path fill="#ffcebe" d="M 231.597656 220.285156 C 231.597656 220.707031 231.546875 221.125 231.4375 221.535156 C 231.332031 221.949219 231.175781 222.347656 230.96875 222.738281 C 230.757812 223.125 230.503906 223.496094 230.203125 223.84375 C 229.898438 224.191406 229.554688 224.515625 229.171875 224.8125 C 228.785156 225.109375 228.367188 225.375 227.914062 225.609375 C 227.460938 225.84375 226.984375 226.039062 226.480469 226.203125 C 225.980469 226.363281 225.460938 226.484375 224.925781 226.566406 C 224.394531 226.648438 223.855469 226.6875 223.308594 226.6875 C 222.765625 226.6875 222.226562 226.648438 221.691406 226.566406 C 221.160156 226.484375 220.640625 226.363281 220.136719 226.203125 C 219.636719 226.039062 219.15625 225.84375 218.707031 225.609375 C 218.253906 225.375 217.832031 225.109375 217.449219 224.8125 C 217.0625 224.515625 216.71875 224.191406 216.417969 223.84375 C 216.117188 223.496094 215.859375 223.125 215.652344 222.738281 C 215.445312 222.347656 215.285156 221.949219 215.179688 221.535156 C 215.074219 221.125 215.019531 220.707031 215.019531 220.285156 C 215.019531 219.867188 215.074219 219.449219 215.179688 219.039062 C 215.285156 218.625 215.445312 218.226562 215.652344 217.835938 C 215.859375 217.449219 216.117188 217.078125 216.417969 216.730469 C 216.71875 216.378906 217.0625 216.058594 217.449219 215.757812 C 217.832031 215.460938 218.253906 215.195312 218.707031 214.964844 C 219.15625 214.730469 219.636719 214.53125 220.136719 214.371094 C 220.640625 214.210938 221.160156 214.089844 221.691406 214.007812 C 222.226562 213.925781 222.765625 213.882812 223.308594 213.882812 C 223.855469 213.882812 224.394531 213.925781 224.925781 214.007812 C 225.460938 214.089844 225.980469 214.210938 226.480469 214.371094 C 226.984375 214.53125 227.460938 214.730469 227.914062 214.964844 C 228.367188 215.195312 228.785156 215.460938 229.171875 215.757812 C 229.554688 216.058594 229.898438 216.378906 230.203125 216.730469 C 230.503906 217.078125 230.757812 217.449219 230.96875 217.835938 C 231.175781 218.226562 231.332031 218.625 231.4375 219.039062 C 231.546875 219.449219 231.597656 219.867188 231.597656 220.285156 Z M 231.597656 220.285156 " fill-opacity="1" fill-rule="nonzero"/><path fill="#ffcebe" d="M 192.984375 220.285156 C 192.984375 220.707031 192.933594 221.125 192.828125 221.535156 C 192.722656 221.949219 192.5625 222.347656 192.355469 222.738281 C 192.148438 223.125 191.890625 223.496094 191.589844 223.84375 C 191.285156 224.191406 190.945312 224.515625 190.558594 224.8125 C 190.171875 225.109375 189.753906 225.375 189.300781 225.609375 C 188.851562 225.84375 188.371094 226.039062 187.871094 226.203125 C 187.367188 226.363281 186.847656 226.484375 186.316406 226.566406 C 185.78125 226.648438 185.242188 226.6875 184.699219 226.6875 C 184.152344 226.6875 183.613281 226.648438 183.082031 226.566406 C 182.546875 226.484375 182.027344 226.363281 181.527344 226.203125 C 181.023438 226.039062 180.546875 225.84375 180.09375 225.609375 C 179.640625 225.375 179.222656 225.109375 178.835938 224.8125 C 178.453125 224.515625 178.109375 224.191406 177.804688 223.84375 C 177.503906 223.496094 177.25 223.125 177.039062 222.738281 C 176.832031 222.347656 176.675781 221.949219 176.566406 221.535156 C 176.460938 221.125 176.410156 220.707031 176.410156 220.285156 C 176.410156 219.867188 176.460938 219.449219 176.566406 219.039062 C 176.675781 218.625 176.832031 218.226562 177.039062 217.835938 C 177.25 217.449219 177.503906 217.078125 177.804688 216.730469 C 178.109375 216.378906 178.453125 216.058594 178.835938 215.757812 C 179.222656 215.460938 179.640625 215.195312 180.09375 214.964844 C 180.546875 214.730469 181.023438 214.53125 181.527344 214.371094 C 182.027344 214.210938 182.546875 214.089844 183.082031 214.007812 C 183.613281 213.925781 184.152344 213.882812 184.699219 213.882812 C 185.242188 213.882812 185.78125 213.925781 186.316406 214.007812 C 186.847656 214.089844 187.367188 214.210938 187.871094 214.371094 C 188.371094 214.53125 188.851562 214.730469 189.300781 214.964844 C 189.753906 215.195312 190.171875 215.460938 190.558594 215.757812 C 190.945312 216.058594 191.285156 216.378906 191.589844 216.730469 C 191.890625 217.078125 192.148438 217.449219 192.355469 217.835938 C 192.5625 218.226562 192.722656 218.625 192.828125 219.039062 C 192.933594 219.449219 192.984375 219.867188 192.984375 220.285156 Z M 192.984375 220.285156 " fill-opacity="1" fill-rule="nonzero"/><path fill="#112233" d="M 212.414062 197.640625 C 214.503906 196.074219 216.558594 195.3125 218.601562 195.332031 C 220.6875 195.363281 222.742188 196.199219 224.777344 197.746094 C 225.171875 198.042969 225.734375 197.96875 226.03125 197.574219 C 226.328125 197.183594 226.253906 196.625 225.859375 196.328125 C 223.480469 194.515625 221.0625 193.574219 218.625 193.542969 C 216.222656 193.523438 213.789062 194.367188 211.335938 196.222656 C 210.941406 196.515625 210.863281 197.078125 211.160156 197.46875 C 211.457031 197.863281 212.019531 197.945312 212.414062 197.640625 Z M 212.414062 197.640625 " fill-opacity="1" fill-rule="evenodd"/><path fill="#112233" d="M 196.746094 196.222656 C 194.292969 194.367188 191.859375 193.523438 189.457031 193.542969 C 187.019531 193.574219 184.601562 194.515625 182.222656 196.328125 C 181.828125 196.625 181.753906 197.183594 182.050781 197.574219 C 182.347656 197.96875 182.910156 198.042969 183.304688 197.746094 C 185.339844 196.199219 187.394531 195.363281 189.480469 195.332031 C 191.523438 195.3125 193.578125 196.074219 195.667969 197.640625 C 196.0625 197.945312 196.625 197.863281 196.921875 197.46875 C 197.21875 197.078125 197.140625 196.515625 196.746094 196.222656 Z M 196.746094 196.222656 " fill-opacity="1" fill-rule="evenodd"/><path fill="#112233" d="M 194.550781 226.878906 C 197.351562 228.832031 200.730469 229.835938 204.125 229.777344 C 207.429688 229.714844 210.746094 228.644531 213.558594 226.46875 C 213.761719 226.3125 213.800781 226.023438 213.640625 225.816406 C 213.484375 225.617188 213.195312 225.578125 212.992188 225.734375 C 210.34375 227.789062 207.21875 228.792969 204.105469 228.84375 C 200.90625 228.902344 197.722656 227.960938 195.078125 226.121094 C 194.867188 225.972656 194.578125 226.023438 194.433594 226.230469 C 194.285156 226.449219 194.339844 226.738281 194.550781 226.878906 Z M 194.550781 226.878906 " fill-opacity="1" fill-rule="evenodd"/><path fill="#112233" d="M 201.546875 212.445312 L 201.449219 219.789062 C 201.445312 220.046875 201.644531 220.257812 201.898438 220.265625 L 206.167969 220.367188 C 206.425781 220.367188 206.636719 220.167969 206.644531 219.910156 C 206.648438 219.652344 206.445312 219.441406 206.191406 219.433594 L 202.378906 219.34375 C 202.378906 219.34375 202.472656 212.464844 202.472656 212.464844 C 202.476562 212.207031 202.273438 211.996094 202.015625 211.988281 C 201.761719 211.988281 201.550781 212.195312 201.546875 212.445312 Z M 201.546875 212.445312 " fill-opacity="1" fill-rule="evenodd"/><path fill="#112233" d="M 193.457031 208.308594 C 193.457031 208.570312 193.429688 208.828125 193.378906 209.082031 C 193.328125 209.339844 193.253906 209.585938 193.152344 209.828125 C 193.054688 210.070312 192.929688 210.296875 192.785156 210.515625 C 192.640625 210.730469 192.476562 210.933594 192.292969 211.117188 C 192.109375 211.300781 191.90625 211.464844 191.691406 211.609375 C 191.472656 211.753906 191.246094 211.878906 191.003906 211.976562 C 190.761719 212.078125 190.515625 212.152344 190.261719 212.203125 C 190.003906 212.253906 189.746094 212.277344 189.484375 212.277344 C 189.226562 212.277344 188.964844 212.253906 188.710938 212.203125 C 188.457031 212.152344 188.207031 212.078125 187.964844 211.976562 C 187.726562 211.878906 187.496094 211.753906 187.28125 211.609375 C 187.0625 211.464844 186.863281 211.300781 186.679688 211.117188 C 186.492188 210.933594 186.328125 210.730469 186.183594 210.515625 C 186.039062 210.296875 185.917969 210.070312 185.816406 209.828125 C 185.71875 209.585938 185.644531 209.339844 185.59375 209.082031 C 185.542969 208.828125 185.515625 208.570312 185.515625 208.308594 C 185.515625 208.046875 185.542969 207.789062 185.59375 207.535156 C 185.644531 207.277344 185.71875 207.03125 185.816406 206.789062 C 185.917969 206.550781 186.039062 206.320312 186.183594 206.105469 C 186.328125 205.886719 186.492188 205.6875 186.679688 205.503906 C 186.863281 205.316406 187.0625 205.152344 187.28125 205.007812 C 187.496094 204.863281 187.726562 204.742188 187.964844 204.640625 C 188.207031 204.542969 188.457031 204.46875 188.710938 204.414062 C 188.964844 204.363281 189.226562 204.339844 189.484375 204.339844 C 189.746094 204.339844 190.003906 204.363281 190.261719 204.414062 C 190.515625 204.46875 190.761719 204.542969 191.003906 204.640625 C 191.246094 204.742188 191.472656 204.863281 191.691406 205.007812 C 191.90625 205.152344 192.109375 205.316406 192.292969 205.503906 C 192.476562 205.6875 192.640625 205.886719 192.785156 206.105469 C 192.929688 206.320312 193.054688 206.550781 193.152344 206.789062 C 193.253906 207.03125 193.328125 207.277344 193.378906 207.535156 C 193.429688 207.789062 193.457031 208.046875 193.457031 208.308594 Z M 193.457031 208.308594 " fill-opacity="1" fill-rule="nonzero"/><path fill="#112233" d="M 222.566406 208.308594 C 222.566406 208.570312 222.539062 208.828125 222.488281 209.082031 C 222.4375 209.339844 222.363281 209.585938 222.265625 209.828125 C 222.164062 210.070312 222.042969 210.296875 221.898438 210.515625 C 221.753906 210.730469 221.585938 210.933594 221.402344 211.117188 C 221.21875 211.300781 221.019531 211.464844 220.800781 211.609375 C 220.585938 211.753906 220.355469 211.878906 220.117188 211.976562 C 219.875 212.078125 219.625 212.152344 219.371094 212.203125 C 219.113281 212.253906 218.855469 212.277344 218.597656 212.277344 C 218.335938 212.277344 218.078125 212.253906 217.820312 212.203125 C 217.566406 212.152344 217.316406 212.078125 217.078125 211.976562 C 216.835938 211.878906 216.609375 211.753906 216.390625 211.609375 C 216.175781 211.464844 215.972656 211.300781 215.789062 211.117188 C 215.605469 210.933594 215.441406 210.730469 215.296875 210.515625 C 215.152344 210.296875 215.027344 210.070312 214.929688 209.828125 C 214.828125 209.585938 214.753906 209.339844 214.703125 209.082031 C 214.652344 208.828125 214.625 208.570312 214.625 208.308594 C 214.625 208.046875 214.652344 207.789062 214.703125 207.535156 C 214.753906 207.277344 214.828125 207.03125 214.929688 206.789062 C 215.027344 206.550781 215.152344 206.320312 215.296875 206.105469 C 215.441406 205.886719 215.605469 205.6875 215.789062 205.503906 C 215.972656 205.316406 216.175781 205.152344 216.390625 205.007812 C 216.609375 204.863281 216.835938 204.742188 217.078125 204.640625 C 217.316406 204.542969 217.566406 204.46875 217.820312 204.414062 C 218.078125 204.363281 218.335938 204.339844 218.597656 204.339844 C 218.855469 204.339844 219.113281 204.363281 219.371094 204.414062 C 219.625 204.46875 219.875 204.542969 220.117188 204.640625 C 220.355469 204.742188 220.585938 204.863281 220.800781 205.007812 C 221.019531 205.152344 221.21875 205.316406 221.402344 205.503906 C 221.585938 205.6875 221.753906 205.886719 221.898438 206.105469 C 222.042969 206.320312 222.164062 206.550781 222.265625 206.789062 C 222.363281 207.03125 222.4375 207.277344 222.488281 207.535156 C 222.539062 207.789062 222.566406 208.046875 222.566406 208.308594 Z M 222.566406 208.308594 " fill-opacity="1" fill-rule="nonzero"/><path fill="#112233" d="M 165.96875 211.683594 C 166.949219 211.710938 165.476562 189.386719 165.476562 189.386719 C 199.867188 191.351562 209.460938 165.410156 232.011719 183.355469 L 240.59375 199.523438 C 240.59375 199.523438 240.832031 210.191406 243.214844 211.195312 C 246.261719 212.476562 246.777344 202.484375 246.507812 198.160156 C 245.804688 186.742188 238.71875 172.007812 236.195312 163.179688 C 236.195312 163.179688 183.402344 143.988281 172.746094 159.109375 L 159.175781 172.796875 C 159.175781 172.796875 160.605469 211.542969 165.96875 211.683594 Z M 165.96875 211.683594 " fill-opacity="1" fill-rule="evenodd"/><g clip-path="url(#d87d6f9124)"><path fill="#5271ff" d="M 256.542969 129.414062 C 254.671875 130.851562 252.691406 132.171875 250.339844 133.023438 C 246.214844 134.519531 242.507812 134.679688 241.105469 134.679688 C 240.75 134.679688 240.535156 134.667969 240.480469 134.667969 L 236.6875 134.929688 L 239.710938 132.0625 C 242.859375 128.871094 244.203125 126.105469 244.78125 124.203125 C 245.285156 122.535156 244.367188 120.746094 242.652344 120.039062 C 238.007812 118.121094 234.460938 114.574219 232.117188 109.496094 C 230.300781 105.554688 229.1875 100.734375 228.722656 94.761719 C 228.425781 90.917969 228.820312 87.058594 229.898438 83.292969 C 230.984375 79.511719 232.703125 76.03125 235.003906 72.953125 C 237.609375 69.464844 240.84375 66.617188 244.625 64.480469 C 248.289062 62.410156 252.367188 61.0625 256.75 60.472656 C 259.207031 60.140625 261.816406 59.984375 264.957031 59.984375 C 267.347656 59.984375 269.765625 60.078125 272.101562 60.164062 L 273.386719 60.214844 C 279.410156 60.433594 285.523438 60.542969 291.546875 60.542969 C 295.253906 60.542969 299.011719 60.5 302.71875 60.417969 C 304.101562 60.386719 305.550781 60.308594 307.082031 60.222656 C 309.199219 60.109375 311.378906 59.988281 313.582031 59.988281 C 316.742188 59.988281 319.285156 60.234375 321.59375 60.765625 C 324.503906 61.429688 326.921875 62.535156 328.992188 64.136719 C 331.441406 66.0625 333.398438 68.820312 335.160156 72.816406 C 339.507812 82.703125 340.402344 93.898438 337.617188 103.546875 C 336.332031 107.988281 334.445312 111.726562 332.007812 114.65625 C 329.28125 117.933594 325.464844 120.324219 320.339844 121.960938 C 316.144531 123.300781 311.734375 123.945312 307.210938 124.535156 C 300.800781 125.375 293.964844 125.800781 286.890625 125.800781 C 282.699219 125.800781 278.3125 125.652344 273.851562 125.359375 C 269.816406 125.09375 264.988281 124.691406 260.945312 124.167969 C 259.59375 126.257812 258.5 127.914062 256.542969 129.414062 Z M 256.542969 129.414062 " fill-opacity="1" fill-rule="nonzero"/></g><g fill="#eef1ff" fill-opacity="1"><g transform="translate(245.101233, 100.950617)"><g><path d="M 18.609375 0 L 14.4375 0 L 14.4375 -8.484375 L 6.640625 -8.484375 L 6.640625 0 L 2.484375 0 L 2.484375 -19.6875 L 6.640625 -19.6875 L 6.640625 -11.96875 L 14.4375 -11.96875 L 14.4375 -19.6875 L 18.609375 -19.6875 Z M 18.609375 0 "/></g></g></g><g fill="#eef1ff" fill-opacity="1"><g transform="translate(266.187116, 100.950617)"><g><path d="M 10.0625 0 L 5.890625 0 L 5.890625 -16.203125 L 0.546875 -16.203125 L 0.546875 -19.6875 L 15.40625 -19.6875 L 15.40625 -16.203125 L 10.0625 -16.203125 Z M 10.0625 0 "/></g></g></g><g fill="#eef1ff" fill-opacity="1"><g transform="translate(282.146237, 100.950617)"><g><path d="M 10.796875 0 L 6.0625 -15.4375 L 5.953125 -15.4375 C 5.972656 -15.070312 6 -14.519531 6.03125 -13.78125 C 6.070312 -13.039062 6.109375 -12.25 6.140625 -11.40625 C 6.179688 -10.5625 6.203125 -9.8125 6.203125 -9.15625 L 6.203125 0 L 2.484375 0 L 2.484375 -19.6875 L 8.15625 -19.6875 L 12.8125 -4.625 L 12.90625 -4.625 L 17.828125 -19.6875 L 23.515625 -19.6875 L 23.515625 0 L 19.625 0 L 19.625 -9.3125 C 19.625 -9.9375 19.632812 -10.648438 19.65625 -11.453125 C 19.6875 -12.265625 19.71875 -13.035156 19.75 -13.765625 C 19.78125 -14.492188 19.800781 -15.039062 19.8125 -15.40625 L 19.703125 -15.40625 L 14.640625 0 Z M 10.796875 0 "/></g></g></g><g fill="#eef1ff" fill-opacity="1"><g transform="translate(308.138382, 100.950617)"><g><path d="M 2.484375 0 L 2.484375 -19.6875 L 6.640625 -19.6875 L 6.640625 -3.453125 L 14.640625 -3.453125 L 14.640625 0 Z M 2.484375 0 "/></g></g></g><g clip-path="url(#006810bda0)"><path fill="#5271ff" d="M 108.890625 171.082031 C 110.546875 172.351562 112.300781 173.523438 114.382812 174.277344 C 118.039062 175.605469 121.324219 175.746094 122.566406 175.746094 C 122.882812 175.746094 123.070312 175.738281 123.121094 175.734375 L 126.484375 175.96875 L 123.800781 173.429688 C 121.011719 170.597656 119.820312 168.148438 119.3125 166.460938 C 118.867188 164.988281 119.675781 163.402344 121.199219 162.773438 C 125.3125 161.078125 128.453125 157.933594 130.53125 153.433594 C 132.140625 149.941406 133.125 145.671875 133.539062 140.378906 C 133.804688 136.972656 133.453125 133.554688 132.496094 130.21875 C 131.535156 126.867188 130.011719 123.78125 127.972656 121.054688 C 125.664062 117.964844 122.796875 115.441406 119.449219 113.550781 C 116.203125 111.714844 112.589844 110.519531 108.707031 109.996094 C 106.53125 109.703125 104.21875 109.566406 101.4375 109.566406 C 99.316406 109.566406 97.175781 109.648438 95.105469 109.726562 L 93.964844 109.769531 C 88.628906 109.960938 83.214844 110.0625 77.875 110.0625 C 74.589844 110.0625 71.261719 110.023438 67.980469 109.949219 C 66.75 109.921875 65.46875 109.851562 64.109375 109.777344 C 62.238281 109.675781 60.304688 109.570312 58.351562 109.570312 C 55.554688 109.570312 53.296875 109.789062 51.253906 110.257812 C 48.675781 110.847656 46.53125 111.824219 44.699219 113.242188 C 42.527344 114.949219 40.792969 117.394531 39.234375 120.9375 C 35.382812 129.691406 34.589844 139.617188 37.058594 148.160156 C 38.195312 152.097656 39.867188 155.410156 42.027344 158.003906 C 44.445312 160.910156 47.824219 163.027344 52.367188 164.476562 C 56.082031 165.664062 59.988281 166.234375 63.996094 166.757812 C 69.675781 167.503906 75.734375 167.882812 82.003906 167.882812 C 85.714844 167.882812 89.601562 167.75 93.554688 167.488281 C 97.128906 167.253906 101.40625 166.898438 104.988281 166.433594 C 106.1875 168.285156 107.15625 169.75 108.890625 171.082031 Z M 108.890625 171.082031 " fill-opacity="1" fill-rule="nonzero"/></g><g fill="#eef1ff" fill-opacity="1"><g transform="translate(62.946389, 145.861397)"><g><path d="M 9.59375 -14.609375 C 8.175781 -14.609375 7.09375 -14.078125 6.34375 -13.015625 C 5.59375 -11.953125 5.21875 -10.503906 5.21875 -8.671875 C 5.21875 -6.816406 5.5625 -5.378906 6.25 -4.359375 C 6.945312 -3.335938 8.0625 -2.828125 9.59375 -2.828125 C 10.289062 -2.828125 11 -2.910156 11.71875 -3.078125 C 12.4375 -3.242188 13.210938 -3.472656 14.046875 -3.765625 L 14.046875 -0.65625 C 13.273438 -0.351562 12.515625 -0.128906 11.765625 0.015625 C 11.015625 0.171875 10.175781 0.25 9.25 0.25 C 7.445312 0.25 5.96875 -0.117188 4.8125 -0.859375 C 3.65625 -1.609375 2.800781 -2.648438 2.25 -3.984375 C 1.695312 -5.328125 1.421875 -6.894531 1.421875 -8.6875 C 1.421875 -10.445312 1.738281 -12.003906 2.375 -13.359375 C 3.007812 -14.710938 3.929688 -15.769531 5.140625 -16.53125 C 6.347656 -17.300781 7.832031 -17.6875 9.59375 -17.6875 C 10.457031 -17.6875 11.320312 -17.570312 12.1875 -17.34375 C 13.0625 -17.125 13.898438 -16.828125 14.703125 -16.453125 L 13.5 -13.453125 C 12.851562 -13.765625 12.195312 -14.035156 11.53125 -14.265625 C 10.875 -14.492188 10.226562 -14.609375 9.59375 -14.609375 Z M 9.59375 -14.609375 "/></g></g></g><g fill="#eef1ff" fill-opacity="1"><g transform="translate(78.502514, 145.861397)"><g><path d="M 12.484375 -4.828125 C 12.484375 -3.285156 11.925781 -2.050781 10.8125 -1.125 C 9.695312 -0.207031 8.113281 0.25 6.0625 0.25 C 4.21875 0.25 2.570312 -0.101562 1.125 -0.8125 L 1.125 -4.25 C 1.957031 -3.894531 2.816406 -3.566406 3.703125 -3.265625 C 4.585938 -2.960938 5.46875 -2.8125 6.34375 -2.8125 C 7.257812 -2.8125 7.90625 -2.984375 8.28125 -3.328125 C 8.664062 -3.679688 8.859375 -4.128906 8.859375 -4.671875 C 8.859375 -5.109375 8.707031 -5.476562 8.40625 -5.78125 C 8.113281 -6.09375 7.710938 -6.382812 7.203125 -6.65625 C 6.703125 -6.925781 6.125 -7.210938 5.46875 -7.515625 C 5.0625 -7.710938 4.617188 -7.945312 4.140625 -8.21875 C 3.671875 -8.488281 3.222656 -8.820312 2.796875 -9.21875 C 2.367188 -9.613281 2.015625 -10.097656 1.734375 -10.671875 C 1.453125 -11.242188 1.3125 -11.925781 1.3125 -12.71875 C 1.3125 -14.28125 1.84375 -15.5 2.90625 -16.375 C 3.96875 -17.25 5.410156 -17.6875 7.234375 -17.6875 C 8.140625 -17.6875 9 -17.578125 9.8125 -17.359375 C 10.625 -17.148438 11.488281 -16.847656 12.40625 -16.453125 L 11.203125 -13.578125 C 10.410156 -13.898438 9.695312 -14.148438 9.0625 -14.328125 C 8.425781 -14.515625 7.773438 -14.609375 7.109375 -14.609375 C 6.410156 -14.609375 5.875 -14.441406 5.5 -14.109375 C 5.125 -13.785156 4.9375 -13.363281 4.9375 -12.84375 C 4.9375 -12.226562 5.210938 -11.738281 5.765625 -11.375 C 6.316406 -11.019531 7.140625 -10.582031 8.234375 -10.0625 C 9.128906 -9.632812 9.890625 -9.191406 10.515625 -8.734375 C 11.140625 -8.285156 11.625 -7.75 11.96875 -7.125 C 12.3125 -6.507812 12.484375 -5.742188 12.484375 -4.828125 Z M 12.484375 -4.828125 "/></g></g></g><g fill="#eef1ff" fill-opacity="1"><g transform="translate(91.958448, 145.861397)"><g><path d="M 12.484375 -4.828125 C 12.484375 -3.285156 11.925781 -2.050781 10.8125 -1.125 C 9.695312 -0.207031 8.113281 0.25 6.0625 0.25 C 4.21875 0.25 2.570312 -0.101562 1.125 -0.8125 L 1.125 -4.25 C 1.957031 -3.894531 2.816406 -3.566406 3.703125 -3.265625 C 4.585938 -2.960938 5.46875 -2.8125 6.34375 -2.8125 C 7.257812 -2.8125 7.90625 -2.984375 8.28125 -3.328125 C 8.664062 -3.679688 8.859375 -4.128906 8.859375 -4.671875 C 8.859375 -5.109375 8.707031 -5.476562 8.40625 -5.78125 C 8.113281 -6.09375 7.710938 -6.382812 7.203125 -6.65625 C 6.703125 -6.925781 6.125 -7.210938 5.46875 -7.515625 C 5.0625 -7.710938 4.617188 -7.945312 4.140625 -8.21875 C 3.671875 -8.488281 3.222656 -8.820312 2.796875 -9.21875 C 2.367188 -9.613281 2.015625 -10.097656 1.734375 -10.671875 C 1.453125 -11.242188 1.3125 -11.925781 1.3125 -12.71875 C 1.3125 -14.28125 1.84375 -15.5 2.90625 -16.375 C 3.96875 -17.25 5.410156 -17.6875 7.234375 -17.6875 C 8.140625 -17.6875 9 -17.578125 9.8125 -17.359375 C 10.625 -17.148438 11.488281 -16.847656 12.40625 -16.453125 L 11.203125 -13.578125 C 10.410156 -13.898438 9.695312 -14.148438 9.0625 -14.328125 C 8.425781 -14.515625 7.773438 -14.609375 7.109375 -14.609375 C 6.410156 -14.609375 5.875 -14.441406 5.5 -14.109375 C 5.125 -13.785156 4.9375 -13.363281 4.9375 -12.84375 C 4.9375 -12.226562 5.210938 -11.738281 5.765625 -11.375 C 6.316406 -11.019531 7.140625 -10.582031 8.234375 -10.0625 C 9.128906 -9.632812 9.890625 -9.191406 10.515625 -8.734375 C 11.140625 -8.285156 11.625 -7.75 11.96875 -7.125 C 12.3125 -6.507812 12.484375 -5.742188 12.484375 -4.828125 Z M 12.484375 -4.828125 "/></g></g></g><g clip-path="url(#02519b92bf)"><path fill="#5271ff" d="M 120.820312 90.285156 C 118.386719 92.152344 115.8125 93.867188 112.757812 94.976562 C 107.390625 96.921875 102.570312 97.132812 100.746094 97.132812 C 100.28125 97.132812 100.003906 97.117188 99.929688 97.113281 L 95 97.457031 L 98.933594 93.730469 C 103.027344 89.574219 104.773438 85.980469 105.523438 83.503906 C 106.179688 81.339844 104.988281 79.011719 102.753906 78.09375 C 96.714844 75.601562 92.105469 70.988281 89.058594 64.382812 C 86.695312 59.257812 85.25 52.988281 84.644531 45.222656 C 84.253906 40.222656 84.769531 35.207031 86.171875 30.308594 C 87.585938 25.386719 89.816406 20.863281 92.808594 16.859375 C 96.199219 12.328125 100.40625 8.625 105.320312 5.84375 C 110.085938 3.152344 115.390625 1.398438 121.089844 0.632812 C 124.285156 0.199219 127.675781 0 131.761719 0 C 134.867188 0 138.011719 0.117188 141.050781 0.230469 L 142.726562 0.296875 C 150.558594 0.582031 158.503906 0.722656 166.339844 0.722656 C 171.160156 0.722656 176.046875 0.671875 180.867188 0.5625 C 182.667969 0.523438 184.550781 0.417969 186.542969 0.308594 C 189.292969 0.15625 192.132812 0.00390625 194.992188 0.00390625 C 199.101562 0.00390625 202.414062 0.324219 205.410156 1.011719 C 209.195312 1.878906 212.34375 3.3125 215.03125 5.394531 C 218.222656 7.902344 220.765625 11.484375 223.050781 16.6875 C 228.707031 29.539062 229.871094 44.101562 226.246094 56.644531 C 224.578125 62.421875 222.125 67.28125 218.953125 71.089844 C 215.410156 75.355469 210.445312 78.460938 203.78125 80.589844 C 198.324219 82.335938 192.59375 83.171875 186.710938 83.941406 C 178.375 85.03125 169.484375 85.585938 160.285156 85.585938 C 154.835938 85.585938 149.128906 85.394531 143.328125 85.011719 C 138.082031 84.664062 131.800781 84.144531 126.546875 83.464844 C 124.785156 86.179688 123.363281 88.332031 120.820312 90.285156 Z M 120.820312 90.285156 " fill-opacity="1" fill-rule="nonzero"/></g><g fill="#eef1ff" fill-opacity="1"><g transform="translate(116.959088, 53.268964)"><g><path d="M 18.921875 -3.546875 L 1.546875 -11.21875 L 1.546875 -13.734375 L 18.921875 -22.40625 L 18.921875 -18.203125 L 6.953125 -12.65625 L 18.921875 -7.75 Z M 18.921875 -3.546875 "/></g></g></g><g fill="#eef1ff" fill-opacity="1"><g transform="translate(137.461123, 53.268964)"><g/></g></g><g fill="#eef1ff" fill-opacity="1"><g transform="translate(149.642051, 53.268964)"><g><path d="M 14.625 -25.59375 L 5.09375 0 L 0.25 0 L 9.78125 -25.59375 Z M 14.625 -25.59375 "/></g></g></g><g fill="#eef1ff" fill-opacity="1"><g transform="translate(164.445102, 53.268964)"><g/></g></g><g fill="#eef1ff" fill-opacity="1"><g transform="translate(176.626031, 53.268964)"><g><path d="M 1.546875 -7.75 L 13.515625 -12.65625 L 1.546875 -18.203125 L 1.546875 -22.40625 L 18.921875 -13.734375 L 18.921875 -11.21875 L 1.546875 -3.546875 Z M 1.546875 -7.75 "/></g></g></g></svg>